<?xml version="1.0" encoding="UTF-8"?>
<svg version="1.1" xmlns="http://www.w3.org/2000/svg" width="225" height="225">
<path d="M0 0 C74.25 0 148.5 0 225 0 C225 74.25 225 148.5 225 225 C150.75 225 76.5 225 0 225 C0 150.75 0 76.5 0 0 Z " fill="#FEFEFE" transform="translate(0,0)"/>
<path d="M0 0 C12.87 0 25.74 0 39 0 C41.14072513 5.78250632 43.27847584 11.56593386 45.40869141 17.35229492 C46.13448756 19.3210373 46.86201881 21.28914091 47.59130859 23.2565918 C48.63834475 26.08216487 49.67915091 28.90996483 50.71875 31.73828125 C51.21091003 33.06029289 51.21091003 33.06029289 51.7130127 34.40901184 C52.16347961 35.6399482 52.16347961 35.6399482 52.62304688 36.89575195 C52.88952026 37.61745071 53.15599365 38.33914948 53.43054199 39.0827179 C54 41 54 41 54 44 C42.45 44 30.9 44 19 44 C18.01 47.63 17.02 51.26 16 55 C15.19267639 57.37301377 14.34963126 59.73436964 13.4609375 62.078125 C13.22257172 62.71231857 12.98420593 63.34651215 12.73861694 63.99992371 C12.2235389 65.36967119 11.7064091 66.73864864 11.18737793 68.10690308 C9.75097579 71.89620961 8.33300327 75.69240872 6.9140625 79.48828125 C6.60799072 80.30631729 6.30191895 81.12435333 5.98657227 81.96717834 C2.22596508 92.03931795 -1.43987792 102.14588403 -5.09832764 112.25549316 C-5.86475059 114.37307725 -6.63204092 116.49034761 -7.40020752 118.6072998 C-8.4824658 121.59030243 -9.56199556 124.57427733 -10.640625 127.55859375 C-10.96608307 128.45499069 -11.29154114 129.35138763 -11.62686157 130.27494812 C-11.92563202 131.10388077 -12.22440247 131.93281342 -12.53222656 132.78686523 C-12.79279846 133.50736557 -13.05337036 134.22786591 -13.32183838 134.97019958 C-13.98296173 136.94900289 -14.49399218 138.9759687 -15 141 C-26.88 141 -38.76 141 -51 141 C-40.57826876 111.24321475 -29.81165689 81.61697349 -19 52 C-18.54184846 50.74485318 -18.08369824 49.48970588 -17.62554932 48.23455811 C-11.75580265 32.15438364 -5.87985484 16.07648093 0 0 Z " fill="#0B0B0B" transform="translate(93,42)"/>
<path d="M0 0 C1.20970459 0.00523682 2.41940918 0.01047363 3.66577148 0.01586914 C4.97094727 0.0190918 6.27612305 0.02231445 7.62084961 0.02563477 C9.00952213 0.03399138 10.39819401 0.04245634 11.78686523 0.05102539 C13.17944179 0.05603873 14.57202005 0.06060193 15.96459961 0.06469727 C19.38456394 0.07653105 22.80444367 0.09301659 26.22436523 0.11352539 C33.49635986 19.01523494 40.68994383 37.94585456 47.80889893 56.90576172 C48.62927095 59.09053894 49.45019617 61.27510852 50.27166748 63.45947266 C51.43083741 66.54271849 52.58773991 69.62680479 53.74389648 72.71118164 C54.09640976 73.64817398 54.44892303 74.58516632 54.81211853 75.55055237 C55.13096512 76.40285934 55.44981171 77.25516632 55.77832031 78.13330078 C56.05887772 78.88124405 56.33943512 79.62918732 56.62849426 80.39979553 C57.22436523 82.11352539 57.22436523 82.11352539 57.22436523 83.11352539 C46.66436523 83.11352539 36.10436523 83.11352539 25.22436523 83.11352539 C20.73138171 71.88106657 20.73138171 71.88106657 18.90014648 66.26586914 C18.51149414 65.08444336 18.1228418 63.90301758 17.72241211 62.68579102 C17.33118164 61.48631836 16.93995117 60.2868457 16.53686523 59.05102539 C15.74402013 56.621748 14.94859425 54.19331083 14.15014648 51.76586914 C13.8037915 50.70360107 13.45743652 49.64133301 13.10058594 48.546875 C12.44930946 46.19656084 12.44930946 46.19656084 11.22436523 45.11352539 C6.93436523 57.65352539 2.64436523 70.19352539 -1.77563477 83.11352539 C-12.33563477 83.11352539 -22.89563477 83.11352539 -33.77563477 83.11352539 C-33.11620784 79.81639078 -32.54258644 77.19894162 -31.3996582 74.13818359 C-31.12091354 73.38625229 -30.84216888 72.63432098 -30.55497742 71.85960388 C-30.25138809 71.05265579 -29.94779877 70.2457077 -29.63500977 69.41430664 C-29.31615311 68.55801163 -28.99729645 67.70171661 -28.66877747 66.81947327 C-27.62502124 64.02016076 -26.57557287 61.22302455 -25.52563477 58.42602539 C-24.80405021 56.49655637 -24.08261588 54.56703116 -23.36132812 52.63745117 C-18.72213433 40.241206 -14.04850063 27.85789734 -9.33813477 15.48852539 C-8.92053894 14.38874863 -8.92053894 14.38874863 -8.49450684 13.26675415 C-7.7174377 11.22236084 -6.93667912 9.17942139 -6.15454102 7.13696289 C-5.71698486 5.99146973 -5.27942871 4.84597656 -4.82861328 3.66577148 C-3.37314808 0.1379641 -3.37314808 0.1379641 0 0 Z " fill="#0A0A0A" transform="translate(125.775634765625,99.886474609375)"/>
<path d="M0 0 C3 3.875 3 3.875 3 5 C-7.56 5 -18.12 5 -29 5 C-29 4.34 -29 3.68 -29 3 C-19.43 3 -9.86 3 0 3 C0 2.01 0 1.02 0 0 Z " fill="#252525" transform="translate(180,178)"/>
</svg>
